# xmcd CD database file
#
# Track frame offsets:
#	150
#	2951
#	21892
#	31159
#	47551
#	61737
#	82831
#	96184
#	109755
#	127462
#	146493
#	172957
#	190074
#	206539
#	229586
#
# Disc length: 3118 seconds
#
# Revision: 0
# Processed by: cddbd v1.5.1PL0 Copyright (c) Steve Scherf et al.
# Submitted via: CDex 1.51
#
DISCID=be0c2c0f
DTITLE=Kitaro - Ancient
DYEAR=1900
DGENRE=New Age
TTITLE0=Prologue
TTITLE1=Main Theme Nile
TTITLE2=Ancient of Wind
TTITLE3=Ritual Dance
TTITLE4=Water of Mystery
TTITLE5=Tumba Dance
TTITLE6=Wave From Ancient
TTITLE7=Spirit of Harp
TTITLE8=Great Pyramid
TTITLE9=Mysterious Triangle
TTITLE10=Itonami
TTITLE11=Unicorn
TTITLE12=Crystal Sand
TTITLE13=Dholavira
TTITLE14=End Theme Beyond
EXTD=
EXTT0=
EXTT1=
EXTT2=
EXTT3=
EXTT4=
EXTT5=
EXTT6=
EXTT7=
EXTT8=
EXTT9=
EXTT10=
EXTT11=
EXTT12=
EXTT13=
EXTT14=
PLAYORDER=
